<mxfile host="65bd71144e">
    <diagram id="KL0f8PL8T8-f2wrZH9Xh" name="Page-1">
        <mxGraphModel dx="1320" dy="1090" grid="1" gridSize="10" guides="1" tooltips="1" connect="1" arrows="1" fold="1" page="1" pageScale="1" pageWidth="850" pageHeight="1100" math="0" shadow="0">
            <root>
                <mxCell id="0"/>
                <mxCell id="1" parent="0"/>
                <mxCell id="183" style="edgeStyle=none;rounded=1;html=1;exitX=0;exitY=0.25;exitDx=0;exitDy=0;entryX=1;entryY=0.5;entryDx=0;entryDy=0;labelBackgroundColor=default;fontFamily=Helvetica;fontSize=11;fontColor=default;endArrow=none;strokeColor=default;strokeWidth=3;" parent="1" source="2" target="182" edge="1">
                    <mxGeometry relative="1" as="geometry"/>
                </mxCell>
                <mxCell id="2" value="User" style="rounded=0;whiteSpace=wrap;html=1;" parent="1" vertex="1">
                    <mxGeometry x="390" y="360" width="80" height="40" as="geometry"/>
                </mxCell>
                <mxCell id="231" style="edgeStyle=none;shape=connector;rounded=1;html=1;exitX=0;exitY=1;exitDx=0;exitDy=0;entryX=0.75;entryY=0;entryDx=0;entryDy=0;labelBackgroundColor=default;fontFamily=Helvetica;fontSize=11;fontColor=default;endArrow=none;strokeColor=default;strokeWidth=3;" parent="1" source="20" target="2" edge="1">
                    <mxGeometry relative="1" as="geometry"/>
                </mxCell>
                <mxCell id="20" value="password" style="ellipse;whiteSpace=wrap;html=1;" parent="1" vertex="1">
                    <mxGeometry x="480" y="270" width="70" height="40" as="geometry"/>
                </mxCell>
                <mxCell id="230" style="edgeStyle=none;shape=connector;rounded=1;html=1;exitX=0.5;exitY=1;exitDx=0;exitDy=0;entryX=0.5;entryY=0;entryDx=0;entryDy=0;labelBackgroundColor=default;fontFamily=Helvetica;fontSize=11;fontColor=default;endArrow=none;strokeColor=default;strokeWidth=3;" parent="1" source="21" target="2" edge="1">
                    <mxGeometry relative="1" as="geometry"/>
                </mxCell>
                <mxCell id="21" value="&lt;u&gt;username&lt;/u&gt;" style="ellipse;whiteSpace=wrap;html=1;" parent="1" vertex="1">
                    <mxGeometry x="410" y="240" width="70" height="40" as="geometry"/>
                </mxCell>
                <mxCell id="164" value="" style="edgeStyle=none;shape=connector;rounded=1;html=1;labelBackgroundColor=default;fontFamily=Helvetica;fontSize=11;fontColor=default;endArrow=none;strokeColor=default;strokeWidth=3;" parent="1" source="26" target="2" edge="1">
                    <mxGeometry relative="1" as="geometry"/>
                </mxCell>
                <mxCell id="26" value="ID" style="ellipse;whiteSpace=wrap;html=1;rounded=0;direction=south;fontStyle=4" parent="1" vertex="1">
                    <mxGeometry x="330" y="270" width="70" height="40" as="geometry"/>
                </mxCell>
                <mxCell id="186" style="edgeStyle=none;shape=connector;rounded=1;html=1;exitX=0.5;exitY=1;exitDx=0;exitDy=0;entryX=0.5;entryY=0;entryDx=0;entryDy=0;labelBackgroundColor=default;fontFamily=Helvetica;fontSize=11;fontColor=default;endArrow=none;strokeColor=default;strokeWidth=1;" parent="1" source="32" target="185" edge="1">
                    <mxGeometry relative="1" as="geometry"/>
                </mxCell>
                <mxCell id="189" style="edgeStyle=none;shape=connector;rounded=1;html=1;exitX=0.5;exitY=1;exitDx=0;exitDy=0;entryX=0.5;entryY=0;entryDx=0;entryDy=0;labelBackgroundColor=default;fontFamily=Helvetica;fontSize=11;fontColor=default;endArrow=none;strokeColor=default;strokeWidth=1;" parent="1" source="2" target="188" edge="1">
                    <mxGeometry relative="1" as="geometry"/>
                </mxCell>
                <mxCell id="255" style="edgeStyle=none;html=1;exitX=0.5;exitY=0;exitDx=0;exitDy=0;entryX=0;entryY=1;entryDx=0;entryDy=0;" edge="1" parent="1" source="32" target="194">
                    <mxGeometry relative="1" as="geometry"/>
                </mxCell>
                <mxCell id="32" value="Company" style="rounded=0;whiteSpace=wrap;html=1;" parent="1" vertex="1">
                    <mxGeometry x="125" y="270" width="80" height="40" as="geometry"/>
                </mxCell>
                <mxCell id="180" style="edgeStyle=none;shape=connector;rounded=1;html=1;exitX=1;exitY=0.5;exitDx=0;exitDy=0;labelBackgroundColor=default;fontFamily=Helvetica;fontSize=11;fontColor=default;endArrow=none;strokeColor=default;strokeWidth=1;" parent="1" source="241" edge="1">
                    <mxGeometry relative="1" as="geometry">
                        <mxPoint x="110" y="340" as="sourcePoint"/>
                        <mxPoint x="140" y="310" as="targetPoint"/>
                    </mxGeometry>
                </mxCell>
                <mxCell id="179" style="edgeStyle=none;shape=connector;rounded=1;html=1;labelBackgroundColor=default;fontFamily=Helvetica;fontSize=11;fontColor=default;endArrow=none;strokeColor=default;strokeWidth=1;exitX=1;exitY=0.5;exitDx=0;exitDy=0;" parent="1" source="35" target="32" edge="1">
                    <mxGeometry relative="1" as="geometry">
                        <mxPoint x="90" y="270" as="sourcePoint"/>
                    </mxGeometry>
                </mxCell>
                <mxCell id="35" value="address" style="ellipse;whiteSpace=wrap;html=1;rounded=0;" parent="1" vertex="1">
                    <mxGeometry x="20" y="290" width="70" height="40" as="geometry"/>
                </mxCell>
                <mxCell id="178" style="edgeStyle=none;shape=connector;rounded=1;html=1;exitX=1;exitY=1;exitDx=0;exitDy=0;entryX=0;entryY=0;entryDx=0;entryDy=0;labelBackgroundColor=default;fontFamily=Helvetica;fontSize=11;fontColor=default;endArrow=none;strokeColor=default;strokeWidth=3;" parent="1" source="240" target="32" edge="1">
                    <mxGeometry relative="1" as="geometry">
                        <mxPoint x="89.74873734152925" y="224.14213562373106" as="sourcePoint"/>
                    </mxGeometry>
                </mxCell>
                <mxCell id="55" value="social" style="rounded=0;whiteSpace=wrap;html=1;" parent="1" vertex="1">
                    <mxGeometry x="120" y="480" width="80" height="40" as="geometry"/>
                </mxCell>
                <mxCell id="74" value="&lt;u&gt;ID&lt;/u&gt;" style="ellipse;whiteSpace=wrap;html=1;rounded=0;" parent="1" vertex="1">
                    <mxGeometry x="22.5" y="100" width="75" height="40" as="geometry"/>
                </mxCell>
                <mxCell id="223" style="edgeStyle=none;shape=connector;rounded=1;html=1;exitX=0.75;exitY=0;exitDx=0;exitDy=0;entryX=0.5;entryY=1;entryDx=0;entryDy=0;labelBackgroundColor=default;fontFamily=Helvetica;fontSize=11;fontColor=default;endArrow=none;strokeColor=default;strokeWidth=3;" parent="1" source="107" target="214" edge="1">
                    <mxGeometry relative="1" as="geometry"/>
                </mxCell>
                <mxCell id="224" style="edgeStyle=none;shape=connector;rounded=1;html=1;exitX=1;exitY=0;exitDx=0;exitDy=0;entryX=0;entryY=1;entryDx=0;entryDy=0;labelBackgroundColor=default;fontFamily=Helvetica;fontSize=11;fontColor=default;endArrow=none;strokeColor=default;strokeWidth=1;" parent="1" source="107" target="208" edge="1">
                    <mxGeometry relative="1" as="geometry"/>
                </mxCell>
                <mxCell id="225" style="edgeStyle=none;shape=connector;rounded=1;html=1;exitX=1;exitY=0.5;exitDx=0;exitDy=0;entryX=0;entryY=0.5;entryDx=0;entryDy=0;labelBackgroundColor=default;fontFamily=Helvetica;fontSize=11;fontColor=default;endArrow=none;strokeColor=default;strokeWidth=1;" parent="1" source="107" target="209" edge="1">
                    <mxGeometry relative="1" as="geometry"/>
                </mxCell>
                <mxCell id="226" style="edgeStyle=none;shape=connector;rounded=1;html=1;exitX=1;exitY=1;exitDx=0;exitDy=0;entryX=0;entryY=0.5;entryDx=0;entryDy=0;labelBackgroundColor=default;fontFamily=Helvetica;fontSize=11;fontColor=default;endArrow=none;strokeColor=default;strokeWidth=1;" parent="1" source="107" target="210" edge="1">
                    <mxGeometry relative="1" as="geometry"/>
                </mxCell>
                <mxCell id="227" style="edgeStyle=none;shape=connector;rounded=1;html=1;exitX=0.75;exitY=1;exitDx=0;exitDy=0;entryX=0;entryY=0;entryDx=0;entryDy=0;labelBackgroundColor=default;fontFamily=Helvetica;fontSize=11;fontColor=default;endArrow=none;strokeColor=default;strokeWidth=1;" parent="1" source="107" target="211" edge="1">
                    <mxGeometry relative="1" as="geometry"/>
                </mxCell>
                <mxCell id="228" style="edgeStyle=none;shape=connector;rounded=1;html=1;exitX=0.5;exitY=1;exitDx=0;exitDy=0;entryX=0.5;entryY=0;entryDx=0;entryDy=0;labelBackgroundColor=default;fontFamily=Helvetica;fontSize=11;fontColor=default;endArrow=none;strokeColor=default;strokeWidth=1;" parent="1" source="107" target="212" edge="1">
                    <mxGeometry relative="1" as="geometry"/>
                </mxCell>
                <mxCell id="107" value="Description" style="rounded=0;whiteSpace=wrap;html=1;" parent="1" vertex="1">
                    <mxGeometry x="580" y="560" width="80" height="40" as="geometry"/>
                </mxCell>
                <mxCell id="112" value="Job_Post" style="rounded=0;whiteSpace=wrap;html=1;" parent="1" vertex="1">
                    <mxGeometry x="320" y="800" width="80" height="40" as="geometry"/>
                </mxCell>
                <mxCell id="152" style="edgeStyle=none;shape=connector;rounded=1;html=1;labelBackgroundColor=default;fontFamily=Helvetica;fontSize=11;fontColor=default;endArrow=none;strokeColor=default;strokeWidth=3;exitX=0;exitY=0.5;exitDx=0;exitDy=0;" parent="1" source="133" target="74" edge="1">
                    <mxGeometry relative="1" as="geometry">
                        <mxPoint x="160" y="160" as="sourcePoint"/>
                    </mxGeometry>
                </mxCell>
                <mxCell id="133" value="Contact" style="rounded=0;whiteSpace=wrap;html=1;" parent="1" vertex="1">
                    <mxGeometry x="150" y="100" width="80" height="40" as="geometry"/>
                </mxCell>
                <mxCell id="134" value="phone" style="ellipse;whiteSpace=wrap;html=1;rounded=0;" parent="1" vertex="1">
                    <mxGeometry x="280" y="30" width="70" height="40" as="geometry"/>
                </mxCell>
                <mxCell id="135" value="address" style="ellipse;whiteSpace=wrap;html=1;rounded=0;" parent="1" vertex="1">
                    <mxGeometry x="200" y="10" width="70" height="40" as="geometry"/>
                </mxCell>
                <mxCell id="136" value="&lt;u&gt;email&lt;/u&gt;" style="ellipse;whiteSpace=wrap;html=1;rounded=0;" parent="1" vertex="1">
                    <mxGeometry x="110" y="10" width="70" height="40" as="geometry"/>
                </mxCell>
                <mxCell id="176" style="edgeStyle=none;shape=connector;rounded=1;html=1;exitX=0.5;exitY=0;exitDx=0;exitDy=0;labelBackgroundColor=default;fontFamily=Helvetica;fontSize=11;fontColor=default;endArrow=none;strokeColor=default;strokeWidth=1;entryX=0.5;entryY=1;entryDx=0;entryDy=0;" parent="1" source="172" target="55" edge="1">
                    <mxGeometry relative="1" as="geometry">
                        <mxPoint x="150" y="520" as="targetPoint"/>
                    </mxGeometry>
                </mxCell>
                <mxCell id="172" value="Instagram" style="ellipse;whiteSpace=wrap;html=1;rounded=0;" parent="1" vertex="1">
                    <mxGeometry x="125" y="580" width="70" height="40" as="geometry"/>
                </mxCell>
                <mxCell id="177" style="edgeStyle=none;shape=connector;rounded=1;html=1;exitX=1;exitY=0.5;exitDx=0;exitDy=0;entryX=0;entryY=1;entryDx=0;entryDy=0;labelBackgroundColor=default;fontFamily=Helvetica;fontSize=11;fontColor=default;endArrow=none;strokeColor=default;strokeWidth=1;" parent="1" source="173" target="55" edge="1">
                    <mxGeometry relative="1" as="geometry"/>
                </mxCell>
                <mxCell id="173" value="Facebook" style="ellipse;whiteSpace=wrap;html=1;rounded=0;" parent="1" vertex="1">
                    <mxGeometry x="40" y="560" width="70" height="40" as="geometry"/>
                </mxCell>
                <mxCell id="182" value="Has" style="rhombus;whiteSpace=wrap;html=1;fontFamily=Helvetica;fontSize=11;fontColor=default;" parent="1" vertex="1">
                    <mxGeometry x="240" y="310" width="70" height="50" as="geometry"/>
                </mxCell>
                <mxCell id="185" value="Has" style="rhombus;whiteSpace=wrap;html=1;fontFamily=Helvetica;fontSize=11;fontColor=default;" parent="1" vertex="1">
                    <mxGeometry x="130" y="380" width="70" height="50" as="geometry"/>
                </mxCell>
                <mxCell id="188" value="Created" style="rhombus;whiteSpace=wrap;html=1;fontFamily=Helvetica;fontSize=11;fontColor=default;" parent="1" vertex="1">
                    <mxGeometry x="370" y="590" width="70" height="50" as="geometry"/>
                </mxCell>
                <mxCell id="191" value="Has" style="rhombus;whiteSpace=wrap;html=1;fontFamily=Helvetica;fontSize=11;fontColor=default;" parent="1" vertex="1">
                    <mxGeometry x="470" y="710" width="70" height="50" as="geometry"/>
                </mxCell>
                <mxCell id="256" style="edgeStyle=none;html=1;exitX=0.5;exitY=0;exitDx=0;exitDy=0;entryX=0.5;entryY=1;entryDx=0;entryDy=0;" edge="1" parent="1" source="194" target="133">
                    <mxGeometry relative="1" as="geometry"/>
                </mxCell>
                <mxCell id="194" value="Has" style="rhombus;whiteSpace=wrap;html=1;fontFamily=Helvetica;fontSize=11;fontColor=default;" parent="1" vertex="1">
                    <mxGeometry x="160" y="175" width="70" height="50" as="geometry"/>
                </mxCell>
                <mxCell id="217" style="edgeStyle=none;shape=connector;rounded=1;html=1;exitX=1;exitY=0.5;exitDx=0;exitDy=0;entryX=0;entryY=0.5;entryDx=0;entryDy=0;labelBackgroundColor=default;fontFamily=Helvetica;fontSize=11;fontColor=default;endArrow=none;strokeColor=default;strokeWidth=3;" parent="1" source="200" target="112" edge="1">
                    <mxGeometry relative="1" as="geometry"/>
                </mxCell>
                <mxCell id="200" value="&lt;u&gt;ID&lt;/u&gt;" style="ellipse;whiteSpace=wrap;html=1;rounded=0;" parent="1" vertex="1">
                    <mxGeometry x="210" y="800" width="70" height="40" as="geometry"/>
                </mxCell>
                <mxCell id="218" style="edgeStyle=none;shape=connector;rounded=1;html=1;exitX=1;exitY=0;exitDx=0;exitDy=0;entryX=0;entryY=1;entryDx=0;entryDy=0;labelBackgroundColor=default;fontFamily=Helvetica;fontSize=11;fontColor=default;endArrow=none;strokeColor=default;strokeWidth=3;" parent="1" source="201" target="112" edge="1">
                    <mxGeometry relative="1" as="geometry"/>
                </mxCell>
                <mxCell id="201" value="title" style="ellipse;whiteSpace=wrap;html=1;rounded=0;" parent="1" vertex="1">
                    <mxGeometry x="210" y="880" width="70" height="40" as="geometry"/>
                </mxCell>
                <mxCell id="220" style="edgeStyle=none;shape=connector;rounded=1;html=1;exitX=0.5;exitY=0;exitDx=0;exitDy=0;entryX=0.5;entryY=1;entryDx=0;entryDy=0;labelBackgroundColor=default;fontFamily=Helvetica;fontSize=11;fontColor=default;endArrow=none;strokeColor=default;strokeWidth=1;" parent="1" source="204" target="112" edge="1">
                    <mxGeometry relative="1" as="geometry"/>
                </mxCell>
                <mxCell id="204" value="benefit" style="ellipse;whiteSpace=wrap;html=1;rounded=0;" parent="1" vertex="1">
                    <mxGeometry x="320" y="950" width="70" height="40" as="geometry"/>
                </mxCell>
                <mxCell id="221" style="edgeStyle=none;shape=connector;rounded=1;html=1;exitX=0;exitY=0;exitDx=0;exitDy=0;entryX=0.75;entryY=1;entryDx=0;entryDy=0;labelBackgroundColor=default;fontFamily=Helvetica;fontSize=11;fontColor=default;endArrow=none;strokeColor=default;strokeWidth=1;" parent="1" source="205" target="112" edge="1">
                    <mxGeometry relative="1" as="geometry"/>
                </mxCell>
                <mxCell id="205" value="like" style="ellipse;whiteSpace=wrap;html=1;rounded=0;" parent="1" vertex="1">
                    <mxGeometry x="420" y="910" width="70" height="40" as="geometry"/>
                </mxCell>
                <mxCell id="222" style="edgeStyle=none;shape=connector;rounded=1;html=1;exitX=0;exitY=0;exitDx=0;exitDy=0;entryX=1;entryY=0.5;entryDx=0;entryDy=0;labelBackgroundColor=default;fontFamily=Helvetica;fontSize=11;fontColor=default;endArrow=none;strokeColor=default;strokeWidth=1;" parent="1" source="206" target="112" edge="1">
                    <mxGeometry relative="1" as="geometry"/>
                </mxCell>
                <mxCell id="206" value="time" style="ellipse;whiteSpace=wrap;html=1;rounded=0;" parent="1" vertex="1">
                    <mxGeometry x="480" y="850" width="70" height="40" as="geometry"/>
                </mxCell>
                <mxCell id="208" value="area" style="ellipse;whiteSpace=wrap;html=1;rounded=0;" parent="1" vertex="1">
                    <mxGeometry x="720" y="480" width="70" height="40" as="geometry"/>
                </mxCell>
                <mxCell id="209" value="cus_type" style="ellipse;whiteSpace=wrap;html=1;rounded=0;" parent="1" vertex="1">
                    <mxGeometry x="730" y="540" width="70" height="40" as="geometry"/>
                </mxCell>
                <mxCell id="210" value="requirement" style="ellipse;whiteSpace=wrap;html=1;rounded=0;" parent="1" vertex="1">
                    <mxGeometry x="730" y="600" width="70" height="40" as="geometry"/>
                </mxCell>
                <mxCell id="211" value="work_time" style="ellipse;whiteSpace=wrap;html=1;rounded=0;" parent="1" vertex="1">
                    <mxGeometry x="680" y="660" width="70" height="40" as="geometry"/>
                </mxCell>
                <mxCell id="212" value="experience" style="ellipse;whiteSpace=wrap;html=1;rounded=0;" parent="1" vertex="1">
                    <mxGeometry x="585" y="680" width="70" height="40" as="geometry"/>
                </mxCell>
                <mxCell id="214" value="&lt;u&gt;ID&lt;/u&gt;" style="ellipse;whiteSpace=wrap;html=1;rounded=0;" parent="1" vertex="1">
                    <mxGeometry x="622.5" y="470" width="70" height="40" as="geometry"/>
                </mxCell>
                <mxCell id="216" style="edgeStyle=none;shape=connector;rounded=1;html=1;exitX=1;exitY=1;exitDx=0;exitDy=0;entryX=0;entryY=0.5;entryDx=0;entryDy=0;labelBackgroundColor=default;fontFamily=Helvetica;fontSize=11;fontColor=default;endArrow=none;strokeColor=default;strokeWidth=3;" parent="1" source="215" target="55" edge="1">
                    <mxGeometry relative="1" as="geometry"/>
                </mxCell>
                <mxCell id="215" value="&lt;u&gt;ID&lt;/u&gt;" style="ellipse;whiteSpace=wrap;html=1;rounded=0;" parent="1" vertex="1">
                    <mxGeometry x="20" y="490" width="70" height="40" as="geometry"/>
                </mxCell>
                <mxCell id="235" style="edgeStyle=none;shape=connector;rounded=1;html=1;exitX=0.5;exitY=1;exitDx=0;exitDy=0;entryX=0.25;entryY=0;entryDx=0;entryDy=0;labelBackgroundColor=default;fontFamily=Helvetica;fontSize=11;fontColor=default;endArrow=none;strokeColor=default;strokeWidth=3;" parent="1" source="234" target="32" edge="1">
                    <mxGeometry relative="1" as="geometry"/>
                </mxCell>
                <mxCell id="234" value="&lt;u&gt;ID&lt;/u&gt;" style="ellipse;whiteSpace=wrap;html=1;rounded=0;" parent="1" vertex="1">
                    <mxGeometry x="40" y="180" width="70" height="40" as="geometry"/>
                </mxCell>
                <mxCell id="236" value="" style="endArrow=classic;html=1;rounded=1;labelBackgroundColor=default;fontFamily=Helvetica;fontSize=11;fontColor=default;strokeColor=default;strokeWidth=3;entryX=0;entryY=0;entryDx=0;entryDy=0;exitX=1;exitY=0.75;exitDx=0;exitDy=0;" parent="1" source="32" target="182" edge="1">
                    <mxGeometry width="50" height="50" relative="1" as="geometry">
                        <mxPoint x="220" y="300" as="sourcePoint"/>
                        <mxPoint x="330" y="260" as="targetPoint"/>
                        <Array as="points"/>
                    </mxGeometry>
                </mxCell>
                <mxCell id="237" value="name" style="ellipse;whiteSpace=wrap;html=1;" parent="1" vertex="1">
                    <mxGeometry x="40" y="30" width="70" height="40" as="geometry"/>
                </mxCell>
                <mxCell id="240" value="name" style="ellipse;whiteSpace=wrap;html=1;rounded=0;" parent="1" vertex="1">
                    <mxGeometry x="22.5" y="230" width="70" height="40" as="geometry"/>
                </mxCell>
                <mxCell id="241" value="phone" style="ellipse;whiteSpace=wrap;html=1;rounded=0;" parent="1" vertex="1">
                    <mxGeometry x="22.5" y="350" width="70" height="40" as="geometry"/>
                </mxCell>
                <mxCell id="243" value="" style="endArrow=classic;html=1;rounded=1;labelBackgroundColor=default;fontFamily=Helvetica;fontSize=11;fontColor=default;strokeColor=default;strokeWidth=3;entryX=0.5;entryY=1;entryDx=0;entryDy=0;exitX=0.5;exitY=0;exitDx=0;exitDy=0;" parent="1" source="112" target="188" edge="1">
                    <mxGeometry width="50" height="50" relative="1" as="geometry">
                        <mxPoint x="280" y="570" as="sourcePoint"/>
                        <mxPoint x="330" y="520" as="targetPoint"/>
                    </mxGeometry>
                </mxCell>
                <mxCell id="244" value="" style="endArrow=classic;html=1;rounded=1;labelBackgroundColor=default;fontFamily=Helvetica;fontSize=11;fontColor=default;strokeColor=default;strokeWidth=3;entryX=0;entryY=1;entryDx=0;entryDy=0;exitX=1;exitY=0.25;exitDx=0;exitDy=0;" parent="1" source="112" target="191" edge="1">
                    <mxGeometry width="50" height="50" relative="1" as="geometry">
                        <mxPoint x="280" y="570" as="sourcePoint"/>
                        <mxPoint x="330" y="520" as="targetPoint"/>
                    </mxGeometry>
                </mxCell>
                <mxCell id="245" value="" style="endArrow=classic;html=1;entryX=1;entryY=0;entryDx=0;entryDy=0;strokeWidth=3;" parent="1" target="191" edge="1">
                    <mxGeometry width="50" height="50" relative="1" as="geometry">
                        <mxPoint x="580" y="600" as="sourcePoint"/>
                        <mxPoint x="450" y="460" as="targetPoint"/>
                    </mxGeometry>
                </mxCell>
                <mxCell id="246" value="" style="endArrow=classic;html=1;exitX=0.5;exitY=0;exitDx=0;exitDy=0;" parent="1" source="55" target="185" edge="1">
                    <mxGeometry width="50" height="50" relative="1" as="geometry">
                        <mxPoint x="400" y="450" as="sourcePoint"/>
                        <mxPoint x="450" y="400" as="targetPoint"/>
                    </mxGeometry>
                </mxCell>
            </root>
        </mxGraphModel>
    </diagram>
</mxfile>